<?xml version="1.0" encoding="UTF-8"?>
<svg id="Layer_1" data-name="Layer 1" xmlns="http://www.w3.org/2000/svg" viewBox="0 0 942.21 367.21">
  <path d="M33.04,112.35h82.39c35.47,0,66.31-13.88,66.31-54.63S150.9,3.3,115.43,3.3H0v154.2h33.04v-45.16ZM33.04,34.14h84.59c17.84,0,30.4,5.95,30.4,23.57s-12.56,23.79-30.4,23.79H33.04v-47.36Z"/>
  <path d="M346.94,120.06c0,30.18,13.88,40.75,38.55,40.75,8.15,0,17.62-1.32,28.2-3.3v-25.33c-7.71.44-13.88,1.1-18.72,1.1-10.57,0-14.98-2.64-14.98-13.22v-50.89h33.7v-27.32h-33.7V9.91l-33.04,3.3v28.64h-15.42v27.32h15.42v50.89Z"/>
  <path d="M520.32,38.55c-20.71,0-35.03,4.19-50.67,10.79l-.22-.22.22-12.78V0l-33.04,3.3v154.2h33.04v-81.51c16.3-3.52,30.62-6.83,47.36-6.83,33.48,0,41.41,12.78,41.41,29.96v68.72h0v26.43h33.04v-25.77h0v-69.61c0-34.59-19.83-60.36-71.15-60.36Z"/>
  <path d="M703.64,120.06c0,30.18,13.88,40.75,38.55,40.75,8.15,0,17.62-1.32,28.2-3.3v-25.33c-7.71.44-13.88,1.1-18.72,1.1-10.57,0-14.98-2.64-14.98-13.22v-50.89h33.7v-27.32h-33.7V9.91l-33.04,3.3v28.64h-15.42v27.32h15.42v50.89Z"/>
  <path d="M862.91,160.81c51.11,0,79.3-25.77,79.3-61.24s-28.2-61.02-79.3-61.02-79.3,25.55-79.3,61.02,28.2,61.24,79.3,61.24ZM862.91,69.17c30.4,0,45.6,12.78,45.6,30.4s-15.2,30.62-45.6,30.62-45.6-13-45.6-30.62,15.2-30.4,45.6-30.4Z"/>
  <path d="M75.56,169.61H0v154.2h75.56c80.18,0,113.67-31.28,113.67-77.1s-33.48-77.1-113.67-77.1ZM75.56,292.97h-42.52v-92.52h42.52c58.16,0,79.96,17.18,79.96,46.26s-21.81,46.26-79.96,46.26Z"/>
  <path d="M281.97,204.86c-52.21,0-77.32,27.98-77.32,61.9,0,38.99,28.86,60.36,87.23,60.36,31.94,0,59.04-6.39,66.75-9.25l-6.17-28.86c-5.95,1.76-33.04,7.49-61.68,7.49-30.4,0-45.38-6.39-50.45-19.16h116.53c15.64-48.46-24.67-72.47-74.9-72.47ZM323.6,255.3h-83.93l.66-1.98c4.19-11.01,16.3-18.5,43.4-18.5s43.18,7.93,39.87,20.49Z"/>
  <path d="M457.32,252.22c-22.91-.22-42.08-.22-42.08-7.93,0-6.83,13.22-8.59,34.59-8.59,25.99,0,42.96,1.32,71.15,6.17l5.29-30.4c-25.55-4.41-49.12-6.61-70.49-6.61-26.21,0-74.24,2.2-74.24,39.21,0,32.38,42.08,35.69,76.66,36.57,24.01.44,44.5-.22,44.5,6.61,0,8.81-34.14,9.25-46.04,9.25-22.69,0-40.75-2.42-72.03-9.25l-6.61,30.18c28.86,7.27,48.68,9.69,74.9,9.69,22.91,0,83.49-1.76,83.49-40.09,0-32.82-44.06-34.36-79.08-34.81Z"/>
  <polygon points="558.43 323.82 591.47 323.82 591.47 206.4 558.43 209.71 558.43 323.82"/>
  <path d="M770.57,198.69c-21.81,0-45.6,4.63-55.51,8.37-7.71-1.32-15.86-2.2-24.67-2.2-39.87,0-71.37,14.98-71.37,44.06,0,15.86,9.03,26.65,23.79,33.04-13.44,6.39-19.16,14.98-20.49,21.81.66,13,11.01,19.61,20.05,20.27,15.42-1.54,37.23-2.86,55.95-2.86,21.15,0,38.55,1.76,38.55,7.93,0,6.61-20.27,7.71-39.87,7.71-44.5,0-74.46-6.61-79.52-7.71l-6.17,28.86c8.15,2.64,34.81,9.25,78.86,9.25,22.69,0,80.85-1.76,80.85-39.21,0-24.23-24.01-31.28-51.33-31.28s-55.73,6.61-70.05,10.57c-3.08-7.27,4.85-16.74,9.25-20.49,9.25,1.98,20.05,2.86,31.5,2.86,41.19,0,71.37-11.68,71.37-40.75,0-13.22-6.61-23.57-17.4-30.84h27.98l-1.76-19.39ZM690.38,262.35c-21.37,0-37.67-4.19-37.67-13.44s16.3-13.22,37.67-13.22,37.67,4.41,37.67,13.22c0,9.25-16.3,13.44-37.67,13.44Z"/>
  <path d="M868.6,204.86c-20.71,0-35.03,4.19-50.67,10.79l-.22-.22-.88-9.03-31.94,3.3v114.11h33.04v-81.51c16.3-3.52,30.62-6.83,47.36-6.83,33.48,0,41.41,12.78,41.41,29.96v58.38h33.04v-58.6c0-34.59-19.83-60.36-71.15-60.36Z"/>
  <path d="M197.48,154.06v4.54h30.84v-4.54c0-30.53,24.7-55.38,55.16-55.66v60.2h31.36V41.36l-119.21,11.83v19.01h60.38c-34.01,11.66-58.52,43.95-58.52,81.87Z"/>
</svg>